<svg width="16" height="16" viewBox="0 0 16 16" fill="none" xmlns="http://www.w3.org/2000/svg">
<path fill-rule="evenodd" clip-rule="evenodd" d="M7.88242 10.1558L13.1854 15.4588C13.4668 15.7402 13.8485 15.8983 14.2464 15.8983C14.6444 15.8983 15.026 15.7402 15.3074 15.4588C15.5888 15.1774 15.7469 14.7958 15.7469 14.3978C15.7469 13.9998 15.5888 13.6182 15.3074 13.3368L10.0024 8.0338L15.3064 2.7308C15.4457 2.59147 15.5561 2.42607 15.6315 2.24405C15.7068 2.06203 15.7456 1.86695 15.7455 1.66995C15.7455 1.47295 15.7066 1.27789 15.6312 1.0959C15.5558 0.913915 15.4452 0.748568 15.3059 0.609302C15.1666 0.470035 15.0012 0.359575 14.8192 0.28423C14.6371 0.208884 14.4421 0.170128 14.2451 0.170175C14.0481 0.170221 13.853 0.209069 13.671 0.2845C13.489 0.359931 13.3237 0.470469 13.1844 0.609802L7.88242 5.9128L2.57942 0.609802C2.44111 0.466473 2.27565 0.352123 2.09268 0.273424C1.90971 0.194726 1.7129 0.153254 1.51374 0.15143C1.31457 0.149606 1.11703 0.187466 0.932653 0.2628C0.748274 0.338135 0.580745 0.449435 0.43984 0.590207C0.298935 0.730979 0.187477 0.898404 0.111969 1.08271C0.0364604 1.26702 -0.00158556 1.46452 5.06168e-05 1.66369C0.00168679 1.86286 0.0429722 2.05971 0.121498 2.24275C0.200024 2.42579 0.314218 2.59136 0.457417 2.7298L5.76242 8.0338L0.458417 13.3378C0.315218 13.4762 0.201025 13.6418 0.122499 13.8249C0.0439726 14.0079 0.00268672 14.2047 0.00105054 14.4039C-0.000585633 14.6031 0.0374603 14.8006 0.112969 14.9849C0.188477 15.1692 0.299935 15.3366 0.44084 15.4774C0.581745 15.6182 0.749274 15.7295 0.933653 15.8048C1.11803 15.8801 1.31557 15.918 1.51474 15.9162C1.7139 15.9143 1.91071 15.8729 2.09368 15.7942C2.27665 15.7155 2.44211 15.6011 2.58042 15.4578L7.88242 10.1558Z" fill="#D24B68"/>
</svg>
