<svg width="8" height="13" viewBox="0 0 8 13" fill="none" xmlns="http://www.w3.org/2000/svg">
<path d="M0.33471 0.339612C0.12033 0.555271 0 0.847001 0 1.15109C0 1.45517 0.12033 1.7469 0.33471 1.96256L4.40935 6.09475L0.33471 10.1694C0.12033 10.3851 0 10.6768 0 10.9809C0 11.285 0.12033 11.5767 0.33471 11.7923C0.441713 11.9002 0.569018 11.9859 0.709282 12.0443C0.849545 12.1027 0.999991 12.1328 1.15194 12.1328C1.30389 12.1328 1.45434 12.1027 1.5946 12.0443C1.73486 11.9859 1.86217 11.9002 1.96917 11.7923L6.84953 6.91198C6.95741 6.80498 7.04304 6.67767 7.10148 6.53741C7.15991 6.39715 7.19 6.2467 7.19 6.09475C7.19 5.9428 7.15991 5.79236 7.10148 5.65209C7.04304 5.51183 6.95741 5.38452 6.84953 5.27752L1.96917 0.339612C1.86217 0.231728 1.73486 0.146098 1.5946 0.0876617C1.45434 0.0292253 1.30389 -0.000861168 1.15194 -0.000861168C0.999991 -0.000861168 0.849545 0.0292253 0.709282 0.0876617C0.569018 0.146098 0.441713 0.231728 0.33471 0.339612Z" fill="#097737"/>
</svg>
