<svg width="62" height="62" viewBox="0 0 62 62" fill="none" xmlns="http://www.w3.org/2000/svg">
<circle cx="31" cy="31" r="30" fill="#FF7A59" stroke="#E1E1E1"/>
<path d="M36.7521 25.1618V21.7466C37.2034 21.5357 37.5855 21.2009 37.854 20.7813C38.1224 20.3616 38.2662 19.8743 38.2685 19.3762V19.2978C38.2685 17.8453 37.091 16.6679 35.6386 16.6679H35.5602C34.1077 16.6679 32.9302 17.8453 32.9302 19.2978V19.3762C32.9325 19.8743 33.0763 20.3616 33.3447 20.7813C33.6132 21.2009 33.9953 21.5357 34.4466 21.7466V25.1618C33.1495 25.3604 31.9279 25.8983 30.9055 26.7209L21.5393 19.4255C21.6061 19.1844 21.6409 18.9365 21.6448 18.6876C21.646 18.1015 21.4733 17.5282 21.1486 17.0402C20.8238 16.5523 20.3617 16.1716 19.8206 15.9463C19.2795 15.7211 18.6837 15.6613 18.1087 15.7747C17.5336 15.8881 17.0051 16.1694 16.59 16.5832C16.1749 16.997 15.8918 17.5246 15.7766 18.0993C15.6613 18.674 15.7191 19.2699 15.9427 19.8117C16.1662 20.3536 16.5453 20.817 17.0322 21.1433C17.5191 21.4696 18.0919 21.6441 18.678 21.6449C19.1907 21.6425 19.6939 21.5056 20.1372 21.2479L29.3602 28.4249C27.6646 30.9864 27.7099 34.3248 29.4745 36.8395L26.6693 39.6455C26.4424 39.5731 26.2063 39.5345 25.9682 39.5313C24.6248 39.5324 23.5364 40.6219 23.5368 41.9654C23.5371 43.3087 24.6262 44.3976 25.9695 44.398C27.3129 44.3983 28.4024 43.31 28.4036 41.9665C28.4004 41.7285 28.3619 41.4923 28.2892 41.2656L31.0643 38.4895C33.5439 40.3983 36.9494 40.5628 39.6015 38.9017C42.2534 37.2406 43.5918 34.1046 42.9563 31.0406C42.3209 27.9765 39.8459 25.6315 36.7521 25.1618ZM35.6018 36.394C35.0891 36.4078 34.5789 36.3187 34.1012 36.1321C33.6235 35.9454 33.1881 35.6649 32.8206 35.3072C32.4531 34.9494 32.161 34.5217 31.9615 34.0492C31.7621 33.5767 31.6593 33.069 31.6593 32.5561C31.6593 32.0433 31.7621 31.5356 31.9615 31.0631C32.161 30.5906 32.4531 30.1629 32.8206 29.8051C33.1881 29.4474 33.6235 29.1669 34.1012 28.9802C34.5789 28.7936 35.0891 28.7045 35.6018 28.7183C37.6679 28.7906 39.3056 30.4859 39.3068 32.5534C39.3077 34.6206 37.6717 36.3176 35.6056 36.392" fill="white"/>
</svg>
