<svg width="62" height="62" viewBox="0 0 62 62" fill="none" xmlns="http://www.w3.org/2000/svg">
<circle cx="31" cy="31" r="30" fill="#21844A" stroke="#E1E1E1"/>
<path fill-rule="evenodd" clip-rule="evenodd" d="M28.1213 27.9981C28.1213 30.3254 29.2964 32.8239 31.8975 32.8239C33.8256 32.8239 35.765 31.318 35.765 27.9639C35.765 25.0205 34.2363 23.0354 31.966 23.0354C30.095 23.0354 28.1213 24.336 28.1213 27.9981ZM32.8673 18.7344C37.5105 18.7344 40.6364 22.4193 40.6364 27.8954C40.6364 33.2916 37.3394 37.0564 32.6391 37.0564C30.3916 37.0564 28.9541 36.0981 28.2012 35.4022C28.2012 35.5619 28.2126 35.7559 28.2126 35.9498V43.2627H23.3982V23.7769C23.3982 23.4917 23.3069 23.4005 23.0217 23.4005H21.3789V19.1337H25.4175C27.2771 19.1337 27.7563 20.0806 27.8475 20.8107C28.6005 19.9665 30.1634 18.7344 32.8673 18.7344Z" fill="white"/>
</svg>
