<svg width="22" height="22" viewBox="0 0 22 22" fill="none" xmlns="http://www.w3.org/2000/svg">
<path d="M11.0033 6.28257C8.39468 6.28257 6.29058 8.38667 6.29058 10.9953C6.29058 13.6039 8.39468 15.708 11.0033 15.708C13.6119 15.708 15.716 13.6039 15.716 10.9953C15.716 8.38667 13.6119 6.28257 11.0033 6.28257ZM11.0033 14.0591C9.31753 14.0591 7.9394 12.6851 7.9394 10.9953C7.9394 9.30542 9.31343 7.9314 11.0033 7.9314C12.6931 7.9314 14.0671 9.30542 14.0671 10.9953C14.0671 12.6851 12.689 14.0591 11.0033 14.0591ZM17.008 6.08979C17.008 6.70093 16.5158 7.18901 15.9087 7.18901C15.2976 7.18901 14.8095 6.69683 14.8095 6.08979C14.8095 5.48276 15.3017 4.99058 15.9087 4.99058C16.5158 4.99058 17.008 5.48276 17.008 6.08979ZM20.1292 7.20542C20.0595 5.73296 19.7232 4.42866 18.6445 3.35405C17.5699 2.27944 16.2656 1.94312 14.7931 1.86929C13.2755 1.78315 8.7269 1.78315 7.20933 1.86929C5.74097 1.93901 4.43667 2.27534 3.35796 3.34995C2.27925 4.42456 1.94702 5.72886 1.87319 7.20132C1.78706 8.7189 1.78706 13.2675 1.87319 14.7851C1.94292 16.2576 2.27925 17.5619 3.35796 18.6365C4.43667 19.7111 5.73687 20.0474 7.20933 20.1212C8.7269 20.2074 13.2755 20.2074 14.7931 20.1212C16.2656 20.0515 17.5699 19.7152 18.6445 18.6365C19.7191 17.5619 20.0554 16.2576 20.1292 14.7851C20.2154 13.2675 20.2154 8.723 20.1292 7.20542ZM18.1687 16.4134C17.8488 17.2173 17.2294 17.8367 16.4214 18.1607C15.2115 18.6406 12.3404 18.5298 11.0033 18.5298C9.66616 18.5298 6.79097 18.6365 5.58511 18.1607C4.7812 17.8408 4.16187 17.2214 3.83784 16.4134C3.35796 15.2035 3.4687 12.3324 3.4687 10.9953C3.4687 9.65815 3.36206 6.78296 3.83784 5.5771C4.15776 4.77319 4.7771 4.15386 5.58511 3.82983C6.79507 3.34995 9.66616 3.46069 11.0033 3.46069C12.3404 3.46069 15.2156 3.35405 16.4214 3.82983C17.2253 4.14976 17.8447 4.76909 18.1687 5.5771C18.6486 6.78706 18.5378 9.65815 18.5378 10.9953C18.5378 12.3324 18.6486 15.2076 18.1687 16.4134Z" fill="white"/>
</svg>
